<svg xmlns="http://www.w3.org/2000/svg" viewBox="0 0 1180 320" role="img" aria-label="OpenAI" fill="#000">
  <path d="M297.06 130.97a80.44 80.44 0 0 0-6.92-66.06c-14.35-24.9-40.83-40.16-69.59-40.16a80.4 80.4 0 0 0-30.16 5.85 79.88 79.88 0 0 0-58.16-24.4c-33.42-.05-63.03 21.36-73.37 53.13a79.85 79.85 0 0 0-53.36 38.7 80.42 80.42 0 0 0 9.9 94.24 80.44 80.44 0 0 0 6.9 66.06c14.36 24.9 40.85 40.15 69.6 40.16 12.5 0 24.8-2.06 36.2-6.06a79.86 79.86 0 0 0 58.14 24.63c33.44.05 63.06-21.38 73.4-53.19a79.86 79.86 0 0 0 53.35-38.7 80.42 80.42 0 0 0-9.93-94.2h-.03zm-120.28 168.11a59.63 59.63 0 0 1-38.3-13.85l1.89-1.07 63.61-36.75a10.34 10.34 0 0 0 5.22-9.06v-89.7l26.9 15.55c.29.14.48.42.52.74v74.32c-.04 33.05-26.81 59.83-59.83 59.87v-.05zm-128.67-54.94a59.63 59.63 0 0 1-7.13-40.09l1.89 1.13 63.65 36.75a10.36 10.36 0 0 0 10.44 0l77.72-44.86v31.06a.98.98 0 0 1-.39.83l-64.32 37.13c-28.63 16.5-65.2 6.72-81.79-21.85l-.07-.1zm-16.75-138.99a59.6 59.6 0 0 1 31.14-26.23l-.02 74.61a10.31 10.31 0 0 0 5.19 9.03l77.35 44.65-26.9 15.53a.96.96 0 0 1-.9.08l-64.35-37.17c-28.57-16.55-38.36-53.11-21.85-81.72l.03-.02zm220.83 51.4-77.71-45.11 26.85-15.51a.96.96 0 0 1 .9-.08l64.35 37.14c28.61 16.52 38.4 53.14 21.87 81.75a59.99 59.99 0 0 1-31.16 26.24v-74.61a10.55 10.55 0 0 0-5.14-9.04zm26.77-40.28-1.89-1.13-63.55-36.98a10.36 10.36 0 0 0-10.5 0l-77.71 44.86v-31.06a.86.86 0 0 1 .35-.85l64.32-37.1a59.9 59.9 0 0 1 89.87 61.62v.6l.03.09h.03l1-.05h.05zM123.11 171.11l-26.92-15.51a1 1 0 0 1-.52-.75V80.6a59.9 59.9 0 0 1 98.19-46l-1.89 1.07-63.61 36.75a10.34 10.34 0 0 0-5.22 9.06l-.03 89.63zm14.62-31.5 34.63-19.94 34.65 19.94v39.87l-34.53 19.95-34.63-19.95-.12-39.87z"/>
  <path d="M410.75 176.34c0 41.14 26.34 68.02 62.63 68.02 36.28 0 62.5-26.88 62.5-68.02s-26.34-68.14-62.5-68.14c-36.17 0-62.63 27-62.63 68.14zm22.86 0c0-30.31 15.34-49.75 39.77-49.75s39.64 19.44 39.64 49.75c0 30.19-15.34 49.63-39.64 49.63s-39.77-19.44-39.77-49.63zM563.09 241.6h21.53v-46.4h30.44c26.7 0 42.75-15.72 42.75-40.6 0-25-16.05-40.6-42.75-40.6h-51.97V241.6zm21.53-65.36V129.4h27.19c15.19 0 24.13 8.6 24.13 23.19 0 14.62-8.94 23.66-24.13 23.66h-27.19zM667.36 241.6h84.02v-18.42h-62.5v-40.05h58.5v-18.06h-58.5v-33.66h62.5V113h-84.02V241.6zM772.72 241.6h20.5v-96.66h1.44l67.13 96.66h20.86V113h-20.5v96.75h-1.44L793.71 113h-20.99V241.6zM898.66 241.6h22.86l11.66-33.66h50.63l11.66 33.66h22.86L971.66 113h-27.75l-45.25 128.6zm40.55-51.85 19.09-55.13h1.44l19.11 55.13h-39.64zM1042 241.6h21.53V113H1042v128.6z"/>
</svg>
